<svg width="55" height="55" xmlns="http://www.w3.org/2000/svg" xmlns:xlink="http://www.w3.org/1999/xlink" xml:space="preserve" overflow="hidden"><g transform="translate(-17 -467)"><path d="M44.5 472.729C32.4688 472.729 22.7292 482.469 22.7292 494.5 22.7292 506.531 32.4688 516.271 44.5 516.271 56.5312 516.271 66.2708 506.531 66.2708 494.5 66.2708 482.469 56.5312 472.729 44.5 472.729ZM44.5 510.542C42.8958 510.542 41.6354 509.281 41.6354 507.677 41.6354 506.073 42.8958 504.812 44.5 504.812 46.1042 504.812 47.3646 506.073 47.3646 507.677 47.3646 509.281 46.1042 510.542 44.5 510.542ZM46.2188 497.25C46.2188 498.74 46.2188 502.521 46.2188 502.521L42.7812 502.521 42.7812 493.927 44.5 493.927C48.3385 493.927 50.8021 491.693 50.8021 488.198 50.8021 484.589 48.1094 481.896 44.5 481.896 40.5469 481.896 38.1979 484.245 38.1979 488.198L34.7604 488.198C34.7604 482.354 38.6562 478.458 44.5 478.458 49.9427 478.458 54.2396 482.755 54.2396 488.198 54.2396 493.068 51.0313 496.562 46.2188 497.25Z" fill="#FFFFFF"/></g></svg>