<svg width="60" height="59" xmlns="http://www.w3.org/2000/svg" xmlns:xlink="http://www.w3.org/1999/xlink" xml:space="preserve" overflow="hidden"><g transform="translate(-15 -341)"><path d="M39.3333 18.4375C39.3333 23.8683 34.9308 28.2708 29.5 28.2708 24.0692 28.2708 19.6667 23.8683 19.6667 18.4375 19.6667 13.0067 24.0692 8.60417 29.5 8.60417 34.9308 8.60417 39.3333 13.0067 39.3333 18.4375Z" fill="#FFFFFF" transform="matrix(1.01695 0 0 1 15 341)"/><path d="M49.1667 50.3958 49.1667 40.5625C49.1667 39.0875 48.4292 37.6125 47.2 36.6292 44.4958 34.4167 41.0542 32.9417 37.6125 31.9583 35.1542 31.2208 32.45 30.7292 29.5 30.7292 26.7958 30.7292 24.0917 31.2208 21.3875 31.9583 17.9458 32.9417 14.5042 34.6625 11.8 36.6292 10.5708 37.6125 9.83333 39.0875 9.83333 40.5625L9.83333 50.3958 49.1667 50.3958Z" fill="#FFFFFF" transform="matrix(1.01695 0 0 1 15 341)"/></g></svg>